<svg width="739" height="867" viewBox="0 0 739 867" fill="none" xmlns="http://www.w3.org/2000/svg">
<g opacity="0.2">
<path d="M607.08 1239.39L714.681 1074.82M714.681 1074.82L862.39 1020.36L904.312 974.685C876.282 937.196 824.452 855.243 841.374 827.339C876.535 789.028 952.197 698.305 973.559 641.901L966.411 475.177C933.376 519.059 860.811 580.773 834.828 476.573L830.849 350.763L751.378 114.948L735.576 241.607C734.17 263.843 724.266 294.749 695.893 240.477C667.521 186.206 654.87 153.059 652.091 143.269L643.109 164.887L538.229 95.7773L581.183 173.204L552.057 187.193C584.225 222.145 643.423 297.648 622.867 320.046C601.283 322.859 553.989 324.698 537.486 309.552C520.983 294.406 528.322 293.902 534.055 295.544C586.556 364.54 685.067 509.606 659.102 537.897C629.774 547.176 562.815 563.541 529.599 554.774C604.175 621.408 740.963 763.417 691.504 798.378C678.229 807.912 646.965 822.652 628.104 805.342C661.497 846.848 725.562 958.851 714.681 1074.82Z" stroke="#E23025" stroke-opacity="0.4" stroke-width="5"/>
<path d="M729.49 1015.8L740.242 961.195M740.242 961.195C776.739 965.056 852.543 968.978 863.781 953.775M740.242 961.195L691.752 845.433M752.422 882.112L763.872 758.924M616.739 193.62C628.644 212.691 654.269 250.189 661.519 247.613C668.083 245.281 729.99 430.683 768.725 550.077M763.872 758.924L780.029 585.086C776.574 574.332 772.776 562.566 768.725 550.077M763.872 758.924C733.862 703.557 671.784 594.327 663.549 600.343M777.278 818.056C826.299 767.355 927.115 648.14 938.215 576.888M768.725 550.077C738.585 491.717 673.421 374.994 653.887 374.983M778.589 526.758C783.122 428.893 787.369 228.062 768.092 207.656" stroke="#E23025" stroke-opacity="0.4" stroke-width="5"/>
</g>
</svg>
