<svg width="540" height="697" viewBox="0 0 540 697" fill="none" xmlns="http://www.w3.org/2000/svg">
<g opacity="0.2">
<path d="M-627.28 313.336L-435.358 356.066M-435.358 356.066L-332.354 475.121L-274.835 498.265C-249.624 458.825 -191.182 381.447 -159.106 387.455C-110.865 406.865 0.695861 445.718 61.0096 445.841L214.528 380.417C161.822 364.959 78.5012 318.786 166.868 257.761L283.212 209.718L475.914 52.2691L351.808 82.0988C330.502 88.6166 298.088 90.2341 338.886 44.5619C379.683 -1.11033 406.249 -24.6271 414.432 -30.6765L391.036 -31.467L418.768 -153.97L361.436 -86.4933L338.084 -108.824C316.705 -66.4056 266.895 15.5952 238.693 4.24732C228.456 -14.9621 210.075 -58.5762 218.436 -79.3571C226.798 -100.138 229.854 -93.4467 230.337 -87.5035C184.259 -14.062 83.1957 129.237 47.5714 114.903C28.5559 90.7242 -10.3489 33.822 -13.8446 -0.353114C-49.936 92.9164 -134.655 270.962 -184.797 236.989C-198.396 227.924 -223.206 203.857 -213.65 180.107C-240.731 225.981 -322.986 325.395 -435.358 356.066Z" stroke="#E23025" stroke-opacity="0.4" stroke-width="5"/>
<path d="M-374.9 349.133L-320.008 339.96M-320.008 339.96C-310.765 375.477 -287.731 447.803 -269.544 452.966M-320.008 339.96L-228.749 253.797M-241.704 323.5L-122.38 290.819M354.855 -46.0251C341.2 -28.1642 315.133 9.02698 320.098 14.9051C324.593 20.2266 172.885 143.478 74.7889 221.789M-122.38 290.819L46.0068 244.702C54.8542 237.68 64.5283 229.981 74.7889 221.789M-122.38 290.819C-81.1336 243.229 -0.774275 146.652 -9.30488 141.063M-172.998 324.197C-108.278 352.214 38.81 404.571 109.404 389.859M74.7889 221.789C118.79 173.023 205.075 70.9177 198.205 52.6313M100.089 222.807C193.277 192.574 382.73 125.8 395.037 100.571" stroke="#E23025" stroke-opacity="0.4" stroke-width="5"/>
</g>
</svg>
